<?xml version="1.0" standalone="no"?>
<!DOCTYPE svg PUBLIC "-//W3C//DTD SVG 20010904//EN"
 "http://www.w3.org/TR/2001/REC-SVG-20010904/DTD/svg10.dtd">
<svg version="1.0" xmlns="http://www.w3.org/2000/svg"
 width="512.000000pt" height="512.000000pt" viewBox="0 0 512.000000 512.000000"
 preserveAspectRatio="xMidYMid meet">
<metadata>
Created by potrace 1.14, written by Peter Selinger 2001-2017
</metadata>
<g transform="translate(0.000000,512.000000) scale(0.100000,-0.100000)"
fill="#000000" stroke="none">
<path d="M2379 5116 c-2 -2 -40 -6 -84 -10 -44 -3 -89 -8 -100 -10 -11 -2 -54
-9 -95 -16 -82 -13 -239 -49 -255 -58 -5 -3 -16 -7 -25 -8 -16 -3 -52 -11 -60
-14 -3 -1 -8 -2 -12 -1 -5 0 -8 -3 -8 -7 0 -5 -6 -9 -14 -9 -8 0 -31 -8 -52
-18 -22 -11 -45 -20 -53 -21 -8 -2 -17 -8 -21 -14 -4 -7 -10 -11 -14 -11 -14
3 -56 -12 -56 -19 0 -4 -11 -11 -25 -14 -14 -4 -25 -11 -25 -16 0 -6 -5 -10
-11 -10 -6 0 -31 -14 -57 -32 -61 -42 -66 -46 -112 -92 -31 -31 -48 -40 -82
-43 -115 -10 -189 -39 -253 -99 -29 -28 -77 -94 -68 -94 4 0 3 -4 -3 -8 -18
-11 -41 -114 -38 -171 1 -28 1 -51 0 -51 0 -1 -18 -3 -39 -6 -76 -11 -144 -53
-201 -124 -10 -12 -19 -28 -20 -34 -1 -6 -8 -22 -15 -35 -11 -19 -11 -22 1
-15 11 6 11 5 -1 -9 -7 -9 -11 -17 -9 -17 3 0 2 -20 -2 -45 -4 -29 -3 -46 4
-49 6 -3 7 -5 1 -5 -6 -1 -9 -20 -7 -46 l4 -45 -87 0 c-155 0 -198 -41 -201
-194 -2 -110 -1 -106 -16 -106 -19 0 -128 -74 -128 -87 0 -7 -3 -13 -7 -13
-17 0 -74 -100 -99 -175 -33 -98 -41 -253 -17 -356 34 -150 118 -270 223 -321
45 -22 46 -23 46 -69 0 -28 -4 -45 -10 -42 -5 4 -6 1 0 -8 5 -8 9 -28 9 -44 0
-17 7 -46 15 -65 26 -64 64 -82 177 -84 49 -1 88 -7 95 -14 7 -7 8 -12 2 -12
-5 0 -9 -49 -9 -115 0 -70 4 -115 10 -115 7 0 7 -3 0 -8 -5 -4 -10 -34 -10
-67 0 -33 5 -63 10 -67 7 -5 7 -8 0 -8 -5 0 -10 -16 -10 -35 0 -19 4 -35 8
-35 5 0 5 -5 1 -12 -11 -18 -10 -68 1 -68 7 0 7 -3 0 -8 -12 -8 -14 -72 -2
-72 4 0 5 -5 1 -12 -11 -18 -10 -68 1 -68 7 0 7 -3 0 -8 -12 -8 -14 -72 -2
-72 4 0 5 -5 1 -12 -11 -18 -10 -68 1 -68 7 0 7 -3 0 -8 -12 -8 -14 -72 -2
-72 4 0 5 -5 2 -10 -11 -18 -11 -250 0 -250 7 0 7 -3 0 -8 -5 -4 -10 -50 -10
-102 l0 -95 -90 -2 c-49 -1 -100 -5 -112 -8 -13 -3 -24 -4 -25 -3 -2 2 -21 -8
-43 -21 -47 -29 -115 -98 -115 -118 0 -7 -4 -13 -8 -13 -5 0 -9 -6 -10 -12 -1
-21 -7 -42 -13 -53 -4 -5 -6 -95 -5 -200 2 -184 3 -191 26 -228 14 -20 36 -41
50 -45 14 -4 1071 -7 2350 -7 2309 0 2325 0 2352 20 15 11 28 26 28 33 0 6 4
12 8 12 4 0 9 12 11 27 5 40 4 385 -1 403 -28 93 -102 170 -188 198 -19 7 -79
12 -133 13 l-98 1 3 84 c2 51 -1 84 -7 84 -7 0 -7 3 0 8 6 4 10 56 10 120 0
68 -4 112 -10 112 -7 0 -7 3 0 8 6 4 10 39 10 77 0 39 -4 73 -10 77 -7 5 -7 8
0 8 6 0 10 44 10 112 0 64 -4 116 -10 120 -7 5 -7 8 0 8 8 0 12 190 5 235 -1
6 -1 26 0 45 5 89 4 110 -5 110 -7 0 -7 3 0 8 6 4 10 52 10 107 l0 100 93 1
c70 0 96 4 103 15 5 7 9 10 9 4 0 -5 7 -1 15 9 8 11 15 16 15 10 0 -5 10 7 21
26 18 29 22 52 23 130 l1 95 40 22 c22 12 46 25 53 29 21 10 62 54 62 64 0 6
4 10 9 10 12 0 54 68 54 86 0 8 4 14 8 14 10 0 35 80 48 150 16 91 7 235 -19
318 -13 39 -28 72 -33 72 -4 0 -6 4 -2 9 3 5 -2 16 -10 24 -8 9 -15 20 -15 25
0 5 -14 23 -30 41 -17 17 -27 31 -23 31 5 0 -19 18 -51 39 -33 22 -62 38 -65
37 -17 -10 -26 28 -26 104 1 66 -3 93 -19 123 -31 59 -57 71 -169 75 l-97 4 1
67 c0 36 0 68 -1 71 -1 3 -3 21 -4 40 -1 19 -8 49 -16 65 -7 17 -13 33 -12 38
1 4 -2 7 -8 7 -5 0 -10 6 -10 13 0 13 -53 67 -66 67 -3 0 -12 7 -20 15 -16 16
-99 42 -141 44 -9 1 -12 16 -9 48 6 76 -44 233 -74 233 -6 0 -10 7 -10 14 0
16 -60 66 -78 66 -7 0 -12 4 -12 9 0 7 -50 33 -70 37 -3 0 -21 4 -40 7 -19 4
-54 9 -76 10 -32 2 -49 11 -75 38 -19 19 -56 50 -84 69 -27 19 -55 40 -62 46
-22 21 -237 122 -314 148 -142 48 -275 77 -509 111 -40 6 -476 15 -481 11z"/>
</g>
</svg>
